{"asset":{"version":"2.0","generator":"THREE.JS GLTFExporter"},"scenes":[{"nodes":[0],"name":"AuxScene"}],"scene":0,"nodes":[{"mesh":0}],"meshes":[{"primitives":[{"mode":4,"attributes":{"POSITION":0,"NORMAL":1},"material":0}]}],"materials":[{"pbrMetallicRoughness":{"baseColorFactor":[0.5019607843137255,0.5019607843137255,0.5019607843137255,1],"metallicFactor":0,"roughnessFactor":1}}],"accessors":[{"bufferView":0,"componentType":5126,"count":138,"max":[7.199999809265137,5.49669885635376,3.3000009059906006],"min":[-7.199999809265137,-4.903300762176514,-28.200000762939453],"type":"VEC3"},{"bufferView":1,"componentType":5126,"count":138,"max":[0.09406530112028122,1,0.7189884781837463],"min":[-0.05141530930995941,0.6950219869613647,0],"type":"VEC3"}],"bufferViews":[{"buffer":0,"byteOffset":0,"byteLength":1656,"byteStride":12,"target":34962},{"buffer":0,"byteOffset":1656,"byteLength":1656,"byteStride":12,"target":34962}],"buffers":[{"byteLength":3312,"uri":"data:application/octet-stream;base64,"}]}